<svg width="210" height="230" viewBox="0 0 210 230" fill="none" xmlns="http://www.w3.org/2000/svg">
<rect x="45" y="15" width="120" height="105" fill="#FFF5EE"/>
<rect x="83" y="127" width="44" height="87" fill="#FFF5EE"/>
<rect x="60" y="185" width="90" height="15" fill="#8082F8"/>
<rect x="15" width="180" height="15" fill="#8082F8"/>
<rect x="45" y="215" width="120" height="15" fill="#8082F8"/>
<rect x="45" y="120" width="120" height="15" fill="#8082F8"/>
<rect x="15" y="30" width="15" height="15" fill="#8082F8"/>
<rect x="180" y="30" width="15" height="15" fill="#8082F8"/>
<rect x="15" y="75" width="15" height="15" fill="#8082F8"/>
<rect x="180" y="75" width="15" height="15" fill="#8082F8"/>
<rect x="45" y="200" width="15" height="15" fill="#8082F8"/>
<rect x="150" y="200" width="15" height="15" fill="#8082F8"/>
<rect x="165" y="15" width="15" height="90" fill="#8082F8"/>
<rect x="150" y="90" width="15" height="30" fill="#8082F8"/>
<rect x="115" y="135" width="15" height="71" fill="#8082F8"/>
<rect x="80" y="135" width="15" height="71" fill="#8082F8"/>
<rect x="45" y="95" width="15" height="30" fill="#8082F8"/>
<rect x="30" y="15" width="15" height="90" fill="#8082F8"/>
<rect y="45" width="15" height="30" fill="#8082F8"/>
<rect x="195" y="45" width="15" height="30" fill="#8082F8"/>
<rect x="60" y="200" width="90" height="15" fill="#FFF5EE"/>
</svg>
