<svg width="225" height="180" viewBox="0 0 225 180" fill="none" xmlns="http://www.w3.org/2000/svg">
<rect x="30" width="45" height="15" fill="#8082F8"/>
<rect x="150" width="45" height="15" fill="#8082F8"/>
<rect x="30" y="165" width="45" height="15" fill="#8082F8"/>
<rect x="150" y="165" width="45" height="15" fill="#8082F8"/>
<rect x="15" y="15" width="75" height="150" fill="#FFF5EE"/>
<rect x="135" y="15" width="75" height="150" fill="#FFF5EE"/>
<rect x="75" y="15" width="15" height="15" fill="#8082F8"/>
<rect x="195" y="15" width="15" height="15" fill="#8082F8"/>
<rect x="25" y="75" width="30" height="15" fill="#8082F8"/>
<rect x="145" y="75" width="30" height="15" fill="#8082F8"/>
<rect x="25" y="120" width="30" height="15" fill="#8082F8"/>
<rect x="145" y="120" width="30" height="15" fill="#8082F8"/>
<rect x="75" y="150" width="15" height="15" fill="#8082F8"/>
<rect x="195" y="150" width="15" height="15" fill="#8082F8"/>
<rect x="25" y="90" width="45" height="30" fill="#8082F8"/>
<rect x="143" y="90" width="47" height="30" fill="#8082F8"/>
<rect x="10" y="90" width="15" height="30" fill="#8082F8"/>
<rect x="130" y="90" width="15" height="30" fill="#8082F8"/>
<rect x="15" y="15" width="15" height="15" fill="#8082F8"/>
<rect x="135" y="15" width="15" height="15" fill="#8082F8"/>
<rect x="15" y="150" width="15" height="15" fill="#8082F8"/>
<rect x="135" y="150" width="15" height="15" fill="#8082F8"/>
<rect y="30" width="15" height="120" fill="#8082F8"/>
<rect x="120" y="30" width="15" height="120" fill="#8082F8"/>
<rect x="90" y="30" width="15" height="120" fill="#8082F8"/>
<rect x="210" y="30" width="15" height="120" fill="#8082F8"/>
</svg>
