<svg width="180" height="240" viewBox="0 0 180 240" fill="none" xmlns="http://www.w3.org/2000/svg">
<rect y="105" width="180" height="15" fill="#8082F8"/>
<rect x="15" y="120" width="150" height="115" fill="#FFF5EE"/>
<rect x="22" y="15" width="60" height="30" fill="#FFF5EE"/>
<rect x="97" y="45" width="30" height="15" fill="#FFF5EE"/>
<rect y="135" width="180" height="15" fill="#8082F8"/>
<rect x="15" y="225" width="150" height="15" fill="#8082F8"/>
<rect y="120" width="15" height="15" fill="#8082F8"/>
<rect x="165" y="120" width="15" height="15" fill="#8082F8"/>
<rect x="127" y="45" width="15" height="15" fill="#8082F8"/>
<rect x="67" y="15" width="15" height="15" fill="#8082F8"/>
<rect x="7" y="15" width="15" height="30" fill="#8082F8"/>
<rect x="97" y="30" width="30" height="15" fill="#8082F8"/>
<rect x="22" width="45" height="15" fill="#8082F8"/>
<rect x="97" y="60" width="30" height="15" fill="#8082F8"/>
<rect x="22" y="45" width="60" height="15" fill="#8082F8"/>
<rect x="150" y="150" width="15" height="90" fill="#8082F8"/>
<rect x="82" width="15" height="105" fill="#8082F8"/>
<rect x="15" y="150" width="15" height="90" fill="#8082F8"/>
</svg>
