<svg width="329" height="195" viewBox="0 0 329 195" fill="none" xmlns="http://www.w3.org/2000/svg">
<rect x="111.004" y="15" width="105" height="165" fill="#8082F8"/>
<rect x="96.0039" y="30" width="135" height="135" fill="#8082F8"/>
<rect x="81.0039" y="45" width="165" height="105" fill="#8082F8"/>
<rect x="66.0039" y="75" width="195" height="45" fill="#8082F8"/>
<rect x="141.004" width="45" height="195" fill="#8082F8"/>
<path d="M126.004 45V30H156.004V15H171.004V30H201.004V45H216.004V60H231.004V90H246.004V105H231.004V135H216.004V150H201.004V165H171.004V180H156.004V165H126.004V150H111.004V135H96.0039V105H81.0039V90H96.0039V60H111.004V45H126.004Z" fill="#FFF5EE"/>
<rect x="44.21" y="88.0706" width="30" height="15" transform="rotate(-11.7568 44.21 88.0706)" fill="#8082F8"/>
<rect x="30.9512" y="97.9801" width="15" height="15" transform="rotate(-11.7568 30.9512 97.9801)" fill="#8082F8"/>
<rect x="17.8955" y="108.869" width="15" height="15" transform="rotate(-11.7568 17.8955 108.869)" fill="#8082F8"/>
<rect x="282.56" y="45.6143" width="15" height="15" transform="rotate(-11.7568 282.56 45.6143)" fill="#8082F8"/>
<rect x="235.119" y="48.3378" width="47" height="15" transform="rotate(-11.7568 235.119 48.3378)" fill="#8082F8"/>
<rect x="20.9521" y="123.554" width="15" height="30" transform="rotate(-11.7568 20.9521 123.554)" fill="#8082F8"/>
<rect x="287.042" y="67.1527" width="15" height="30" transform="rotate(-11.7568 287.042 67.1527)" fill="#8082F8"/>
<rect x="38.6943" y="135.183" width="15" height="30" transform="rotate(-11.7568 38.6943 135.183)" fill="#8082F8"/>
<rect x="275.617" y="85.8734" width="15" height="30" transform="rotate(-11.7568 275.617 85.8734)" fill="#8082F8"/>
<rect x="56.4355" y="146.812" width="30" height="15" transform="rotate(-11.7568 56.4355 146.812)" fill="#8082F8"/>
<rect x="249.303" y="106.672" width="30" height="15" transform="rotate(-11.7568 249.303 106.672)" fill="#8082F8"/>
<rect x="4.63672" y="118.778" width="15" height="15" transform="rotate(-11.7568 4.63672 118.778)" fill="#8082F8"/>
<rect x="4.63672" y="118.778" width="15" height="30" transform="rotate(-11.7568 4.63672 118.778)" fill="#8082F8"/>
<rect x="298.671" y="49.411" width="15" height="30" transform="rotate(-11.7568 298.671 49.411)" fill="#8082F8"/>
<rect x="74.1777" y="158.441" width="197" height="15" transform="rotate(-11.7568 74.1777 158.441)" fill="#8082F8"/>
</svg>
