<svg width="255" height="314" viewBox="0 0 255 314" fill="none" xmlns="http://www.w3.org/2000/svg">
<rect x="57.8965" y="22.5155" width="14.4742" height="160.825" fill="#8082F8"/>
<rect x="101.319" y="22.5155" width="14.4742" height="131.876" fill="#8082F8"/>
<rect x="144.742" y="94.8867" width="14.4742" height="73.9794" fill="#8082F8"/>
<rect x="188.165" y="109.361" width="14.4742" height="73.9794" fill="#8082F8"/>
<rect x="231.588" y="138.309" width="14.4742" height="88.4536" fill="#8082F8"/>
<rect x="217.113" y="226.763" width="14.4742" height="41.8144" fill="#8082F8"/>
<rect x="202.64" y="268.577" width="14.4742" height="45.0309" fill="#8082F8"/>
<rect x="72.3711" y="284.66" width="14.4742" height="28.9484" fill="#8082F8"/>
<rect x="57.8965" y="255.711" width="14.4742" height="28.9484" fill="#8082F8"/>
<rect x="43.4229" y="226.763" width="14.4742" height="28.9484" fill="#8082F8"/>
<rect x="28.9482" y="197.814" width="14.4742" height="28.9484" fill="#8082F8"/>
<rect x="14.4746" y="168.866" width="14.4742" height="28.9484" fill="#8082F8"/>
<rect y="139.918" width="14.4742" height="43.4227" fill="#8082F8"/>
<rect x="43.4229" y="154.392" width="14.4742" height="14.4742" fill="#8082F8"/>
<rect x="14.4746" y="139.918" width="28.9484" height="14.4742" fill="#8082F8"/>
<rect x="72.3711" y="8.04138" width="28.9484" height="14.4742" fill="#8082F8"/>
<rect x="115.794" y="80.4125" width="28.9484" height="14.4742" fill="#8082F8"/>
<rect x="159.217" y="94.8867" width="28.9484" height="14.4742" fill="#8082F8"/>
<rect x="86.8457" y="299.134" width="115.794" height="14.4742" fill="#8082F8"/>
<rect x="202.64" y="109.361" width="14.4742" height="14.4742" fill="#8082F8"/>
<rect x="217.113" y="123.835" width="14.4742" height="14.4742" fill="#8082F8"/>
<path d="M14.4746 154.392H43.4231V168.866H57.8973V183.34H72.3715V22.5155H101.32V154.392H115.794V94.8866H144.743V168.866H159.217V109.361H188.165V183.34H202.64V123.835H217.114V138.309H231.588V226.763H217.114V268.577H202.64V299.134H86.8457V284.66H72.3715V255.711H57.8973V226.763H43.4231V197.814H28.9488V168.866H14.4746V154.392Z" fill="#8082F8"/>
<rect x="65.9395" y="14.4742" width="14.4742" height="160.825" fill="#8082F8"/>
<rect x="109.361" y="14.4742" width="14.4742" height="131.876" fill="#8082F8"/>
<rect x="152.784" y="86.8455" width="14.4742" height="73.9794" fill="#8082F8"/>
<rect x="196.207" y="101.32" width="14.4742" height="73.9794" fill="#8082F8"/>
<rect x="239.63" y="130.268" width="14.4742" height="88.4536" fill="#8082F8"/>
<rect x="225.155" y="218.722" width="14.4742" height="41.8144" fill="#8082F8"/>
<rect x="210.682" y="260.536" width="14.4742" height="45.0309" fill="#8082F8"/>
<rect x="80.4131" y="276.619" width="14.4742" height="28.9484" fill="#8082F8"/>
<rect x="65.9395" y="247.67" width="14.4742" height="28.9484" fill="#8082F8"/>
<rect x="51.4648" y="218.722" width="14.4742" height="28.9484" fill="#8082F8"/>
<rect x="36.9902" y="189.773" width="14.4742" height="28.9484" fill="#8082F8"/>
<rect x="22.5166" y="160.825" width="14.4742" height="28.9484" fill="#8082F8"/>
<rect x="8.04199" y="131.876" width="14.4742" height="43.4227" fill="#8082F8"/>
<rect x="51.4648" y="146.35" width="14.4742" height="14.4742" fill="#8082F8"/>
<rect x="22.5166" y="131.876" width="28.9484" height="14.4742" fill="#8082F8"/>
<rect x="80.4131" width="28.9484" height="14.4742" fill="#8082F8"/>
<rect x="123.836" y="72.3711" width="28.9484" height="14.4742" fill="#8082F8"/>
<rect x="167.259" y="86.8455" width="28.9484" height="14.4742" fill="#8082F8"/>
<rect x="94.8877" y="291.093" width="115.794" height="14.4742" fill="#8082F8"/>
<rect x="210.682" y="101.32" width="14.4742" height="14.4742" fill="#8082F8"/>
<rect x="225.155" y="115.794" width="14.4742" height="14.4742" fill="#8082F8"/>
<path d="M22.5166 146.35H51.465V160.825H65.9393V175.299H80.4135V14.4742H109.362V146.35H123.836V86.8454H152.785V160.825H167.259V101.32H196.207V175.299H210.682V115.794H225.156V130.268H239.63V218.722H225.156V260.536H210.682V291.093H94.8877V276.618H80.4135V247.67H65.9393V218.722H51.465V189.773H36.9908V160.825H22.5166V146.35Z" fill="#FFF5EE"/>
</svg>
