<svg width="169" height="423" viewBox="0 0 169 423" fill="none" xmlns="http://www.w3.org/2000/svg">
<path d="M1.27217 416.815C0.555745 416.498 0.25627 415.593 0.603258 414.794L6.25742 401.777C6.60438 400.978 7.46642 400.588 8.18282 400.906C8.89922 401.224 9.19869 402.129 8.85174 402.927L3.82581 414.498L14.2031 419.1C14.9195 419.417 15.219 420.322 14.872 421.121C14.525 421.92 13.663 422.31 12.9466 421.992L1.27217 416.815ZM134.132 3.01078C133.857 2.22759 134.24 1.30542 134.987 0.951049C135.734 0.59668 136.562 0.944308 136.837 1.7275L134.132 3.01078ZM1.42742 413.94C98.2638 370.127 144.245 304.292 159.695 231.129C175.174 157.822 160.053 76.9059 134.132 3.01078L136.837 1.7275C162.832 75.8324 178.17 157.417 162.503 231.609C146.806 305.946 100.037 372.611 2.37338 416.799L1.42742 413.94Z" fill="url(#paint0_linear_784_72790)"/>
<defs>
<linearGradient id="paint0_linear_784_72790" x1="-23.5881" y1="254.808" x2="198.544" y2="172.449" gradientUnits="userSpaceOnUse">
<stop stop-color="#BFF0FF"/>
<stop offset="1" stop-color="#82B4FF"/>
</linearGradient>
</defs>
</svg>
