<svg width="282" height="501" viewBox="0 0 282 501" fill="none" xmlns="http://www.w3.org/2000/svg">
<path d="M136 270L135.713 271.472L136 270ZM67.8929 500.496C68.7192 500.555 69.437 499.933 69.4962 499.107L70.4601 485.642C70.5192 484.815 69.8973 484.097 69.071 484.038C68.2447 483.979 67.5269 484.601 67.4677 485.427L66.6109 497.397L54.6416 496.54C53.8152 496.481 53.0974 497.103 53.0383 497.929C52.9791 498.755 53.601 499.473 54.4274 499.532L67.8929 500.496ZM216 2L215.212 3.27643C251.407 25.6175 270.074 45.018 276.33 61.902C279.437 70.289 279.488 78.0693 277.089 85.3637C274.681 92.6876 269.77 99.6187 262.798 106.207C248.829 119.406 226.854 130.982 201.284 141.394C175.746 151.793 146.781 160.972 118.939 169.44C91.1288 177.898 64.406 185.658 43.4705 193.196C33.0004 196.966 23.9225 200.7 16.8473 204.463C9.82695 208.197 4.5559 212.072 1.96261 216.221C0.640394 218.336 -0.018705 220.575 0.200882 222.907C0.419514 225.229 1.49314 227.474 3.32971 229.641C6.95825 233.923 13.7931 238.168 24.1354 242.517C44.8858 251.245 80.5816 260.721 135.713 271.472L136 270L136.287 268.528C81.1687 257.779 45.7395 248.349 25.2985 239.752C15.0451 235.44 8.76764 231.418 5.61836 227.702C4.06601 225.87 3.33434 224.184 3.18767 222.626C3.04197 221.078 3.45757 219.489 4.50645 217.811C6.65534 214.373 11.312 210.805 18.256 207.112C25.1452 203.448 34.0682 199.77 44.4868 196.019C65.3287 188.514 91.9339 180.789 119.812 172.31C147.657 163.841 176.739 154.628 202.415 144.172C228.06 133.729 250.468 121.985 264.858 108.387C272.066 101.577 277.329 94.2402 279.939 86.3008C282.56 78.332 282.475 69.8536 279.143 60.8597C272.519 42.982 253.093 23.1325 216.788 0.723572L216 2ZM136 270L135.713 271.472C167.236 277.62 186.352 281.928 196.173 285.24C198.622 286.066 200.438 286.812 201.704 287.485C203.035 288.193 203.52 288.7 203.644 288.929C203.677 288.989 203.641 288.947 203.659 288.86C203.671 288.8 203.683 288.853 203.526 289.013C203.18 289.367 202.411 289.841 201.041 290.385C198.356 291.45 194.083 292.513 188.487 293.67C182.917 294.822 176.151 296.045 168.529 297.451C153.304 300.258 134.737 303.78 115.861 308.855C96.9901 313.929 77.7539 320.57 61.1973 329.64C44.6477 338.707 30.6698 350.259 22.4663 365.205C5.95294 395.291 13.2725 438.124 66.8663 499.982L68 499L69.1337 498.018C15.7275 436.376 9.54706 394.977 25.0962 366.648C32.924 352.387 46.368 341.185 62.6387 332.271C78.9024 323.361 97.8849 316.795 116.639 311.752C135.388 306.711 153.852 303.208 169.073 300.401C176.673 299 183.484 297.768 189.094 296.608C194.679 295.453 199.191 294.346 202.147 293.173C203.597 292.598 204.862 291.937 205.67 291.112C206.091 290.682 206.46 290.134 206.598 289.461C206.741 288.759 206.6 288.088 206.283 287.502C205.708 286.44 204.521 285.585 203.113 284.836C201.639 284.053 199.649 283.246 197.132 282.397C187.086 279.01 167.764 274.666 136.287 268.528L136 270Z" fill="url(#paint0_linear_2_8)"/>
<defs>
<linearGradient id="paint0_linear_2_8" x1="26.2928" y1="290.076" x2="313.148" y2="234.504" gradientUnits="userSpaceOnUse">
<stop stop-color="#AB83FE"/>
<stop offset="1" stop-color="#FBAE96"/>
</linearGradient>
</defs>
</svg>
