<svg id="Layer_1" data-name="Layer 1" xmlns="http://www.w3.org/2000/svg" viewBox="0 0 500 500"><defs><style>.cls-4{fill:#f2a775}.cls-5{fill:#070507}.cls-8{fill:#d37946}.cls-9{fill:#fff}</style></defs><path d="M464.27 259.18c-17 35.12-28.68 56.89-51.53 76.16C368 373.08 313 396.38 252.65 396.9a256.8 256.8 0 0 1-162-55.66c-25.24-20.13-40-45.74-56-75-14.58-26.65-15.2-87.84 13.08-109.41s67-41.8 168.2.59 137.19-38 196.81-13.76 65.75 86.06 51.53 115.52" style="fill:#52b69a"/><path d="M290.14 286.76s-1.52-8.35 1.43-14.52h-1.71l-21.05 6.68-18 4.28-30.12-10.84-9.11-3.76c2.75 7.71 1.09 17.12 1.09 17.12l-6.86 20.17 12.1 32.4 50.67 2.26L295.91 316l-1.52-23.7Z" style="fill:#ed9564"/><path d="M211.19 268.06s9.41 21.49 12.18 26.24c5.42 9.31 43.73 12.83 51.81 4 3-3.28 16.39-25.51 16.39-25.51Z" style="fill:#e88452"/><path class="cls-4" d="m203.2 244.64-1.26-34.87-5.66-44.88s30.37-25.46 31.7-27 41.75-2.77 41.75-2.77l27.85 11.34 15.92 29.75-2.69 33-6.51 34.23-3.3 11.14-7 11.42-17.24 12.61-23 2.14h-14.63l-6.17-3-10.09-3.78-6.17-3.79-5.8-4.79-5.8-14.24Z"/><path class="cls-5" d="M304.3 243.45s-6.68 18.5-12 20.64c-5 2-4.9 1.87-6.44 2.76s-2.43 3.65-3.12 3.37 1.45-2.27.69-2.14-6.43 5.54-10.82 5.92-13.7-4.35-14.84-5.05.88 3 1.26 3.66-1.76-.44-2.71-2a2.27 2.27 0 0 0-2.38-1.16 2.09 2.09 0 0 0-2 1.16c-1 1.52-3.09 2.59-2.71 2s2.39-4.35 1.26-3.66-7 5.43-11.38 5.05-10.08-5.8-10.84-5.92 1.39 1.85.69 2.14-1.57-2.49-3.12-3.37-.81 3-6.2 2.3S203 240.34 203 240.34s.53 28.85 19.69 37.93 19.32 8.79 21 9.57 9.81 1.36 9.81 1.36c1.07 0 7.05.15 10.57-1.26 1.68-.67 3.38.35 21.51-10.38 16.42-9.74 18.72-34.11 18.72-34.11"/><path style="fill:#fffdff" d="m231.63 241.69 1.26 2.01 7.44 4.44 27.1.58 7.75-5.36-3.78-2.84-10.15-2.33h-11.97l-13.74.88z"/><path d="M231.76 241.78a17 17 0 0 0 1.7 1.67c.38.22 12.25-.78 13-.47s15.46.82 16 .47 7.75.85 9.14 1.3a4.85 4.85 0 0 0 2.71 0l-.63-3s-4.41-.94-5.11-1.76a19.8 19.8 0 0 0-3.84-2.71c-.25-.06-6.81-1-7-1h-11.6l-6.93 1-4.54 1.7-2.52 1.61Z" style="fill:#e5e5e5"/><path class="cls-8" d="M230.86 241.69s-.05 1 2.73.22 9.32-3.78 14.74-2 12.11.94 15.13.26c3.53-.8 9.51 4.21 11.6 4.15a1.59 1.59 0 0 0 1.65-2.11l.87-3.68-9.27-4-8.57-2.4s-8.63-1-8.76-1.2-7.81 1.83-7.81 1.83l-9.46 1.58-5.71 3.85 1.51 2.9Z"/><path class="cls-8" d="M252.34 254.58s-7.16.09-9.66-.66c-5.12-1.55-11.82-12.23-11.82-12.23l1.28.5s3.12 2.56 4.53 2.84 13.86.61 16.41 1.08l.92.12c2.55-.47 13.11.12 14.53-.16a31.3 31.3 0 0 0 5.19-2.37l3-.47s-6.08 7.57-9.73 9.46-14 1.88-14 1.88Z"/><path d="M269 202.09a37.7 37.7 0 0 1 6.72.26c1.11.11 2.2.3 3.29.43s2.15.3 3.22.38a26 26 0 0 0 3.2.11c1.07 0 2.18-.09 3.25-.15a22.5 22.5 0 0 0 6.38-1.35 13.3 13.3 0 0 1-6.16 2.88 30 30 0 0 1-3.37.5 23.5 23.5 0 0 1-3.46 0 34 34 0 0 1-3.38-.49c-1.1-.25-2.18-.47-3.26-.76-2.12-.54-4.25-1.11-6.43-1.81" id="blink_R" data-name="blink R"/><g id="eye_R" data-name="eye R"><path d="M267.76 199.49c2.45-1.55 4.19-3.93 6.6-5.6a10.7 10.7 0 0 1 4-1.73 18.3 18.3 0 0 1 4.36-.23 18.9 18.9 0 0 1 8.34 2.35 14.8 14.8 0 0 1 3.43 2.66 11 11 0 0 0 1.63 1.4 5 5 0 0 0 1 .49 1.3 1.3 0 0 0 1 0 1.32 1.32 0 0 1-1.05.06 4.5 4.5 0 0 1-1-.46 10 10 0 0 1-1.7-1.35 16 16 0 0 0-3.46-2.53 18.6 18.6 0 0 0-4-1.56 21 21 0 0 0-4.24-.65 18 18 0 0 0-4.27.19 10.8 10.8 0 0 0-3.91 1.63 29.5 29.5 0 0 0-3.32 2.73 21.7 21.7 0 0 1-3.41 2.6"/><path class="cls-9" d="m269.73 201.77 4.04-4.49 2.48-1.5h7.88l4.14.71 3.2 2.07 2.87 3.44-.45.69-.82.47-2.83.87-2.23.34h-4.5l-2.5-.61-1.78-.26-3.77-.68-2.56-.34-3.17-.19z"/><path d="M285.56 204.79a17.5 17.5 0 0 1-2.76-.21c-1.74-.26-3.5-.56-5.15-.84-4.09-.69-7.6-1-8.52-1.08-.21 0-.26 0-.29-.18a.33.33 0 0 1 .19-.39c1-.3 4.37.28 8.68 1 1.66.28 3.41.57 5.15.84a22.73 22.73 0 0 0 11.54-1.62c.13-.07.28 0 .33.19a.38.38 0 0 1-.16.42 24 24 0 0 1-9.01 1.87"/><path d="M267.76 202.75c1.08-.15 5.62-7.24 7.61-8s11.84-.57 14.2.65c2.07 1.06 6.16 6.36 7.95 7.42.1.06.06.24 0 .24H294s-3.74-5.23-5.56-5.8-10.09-1.43-12.08-.79-5.28 4-5.76 4.63a6.2 6.2 0 0 0-.79 1.5Z"/><ellipse class="cls-5" cx="282.03" cy="200.07" rx="4.55" ry="3.53"/><ellipse class="cls-9" cx="279.85" cy="198.54" rx="1.48" ry=".96"/><circle class="cls-9" cx="281.79" cy="200.01" r=".51"/></g><path d="M244.13 199.49c-2.14.77-4.26 1.41-6.4 2-1.07.32-2.15.59-3.25.86s-2.23.45-3.38.57a19.4 19.4 0 0 1-3.49.06c-.57 0-1.13-.1-1.69-.17a14 14 0 0 1-1.74-.33 14.9 14.9 0 0 1-6-3.23 27.3 27.3 0 0 0 6.32 1.72c.53.07 1.06.09 1.58.11s1.1 0 1.64 0a24 24 0 0 0 3.19-.18c2.14-.22 4.29-.67 6.51-1a36 36 0 0 1 6.71-.41" id="blink_L" data-name="blink L"/><g id="eye_L" data-name="eye L"><path d="M245.76 197.31c-2.46-1.56-4.2-3.93-6.6-5.6a10.55 10.55 0 0 0-4-1.73 17.7 17.7 0 0 0-4.36-.23 19.06 19.06 0 0 0-8.34 2.34 15.5 15.5 0 0 0-3.43 2.66 11 11 0 0 1-1.63 1.41 4 4 0 0 1-1 .48 1.22 1.22 0 0 1-1 0 1.3 1.3 0 0 0 1.06.06 4.4 4.4 0 0 0 1-.45 10.6 10.6 0 0 0 1.71-1.36 16 16 0 0 1 3.46-2.52 18.7 18.7 0 0 1 4-1.57 21.5 21.5 0 0 1 4.23-.64 17.4 17.4 0 0 1 4.27.19A10.6 10.6 0 0 1 239 192a30 30 0 0 1 3.32 2.74 22 22 0 0 0 3.44 2.57"/><path class="cls-9" d="m243.79 199.58-4.05-4.48-2.48-1.51h-7.88l-4.14.72-3.2 2.07-2.87 3.43.45.7.82.47 2.84.86 2.22.34h4.5l2.5-.6 1.79-.27 3.76-.67 2.57-.34 3.17-.19z"/><path d="M228 202.6a19 19 0 0 0 2.76-.2c1.74-.27 3.5-.56 5.15-.85 4.09-.69 7.6-1 8.52-1.07.21 0 .26 0 .29-.19a.34.34 0 0 0-.19-.39c-1-.29-4.37.28-8.68 1-1.66.28-3.41.58-5.15.84a22.6 22.6 0 0 1-11.54-1.62.24.24 0 0 0-.32.2.34.34 0 0 0 .15.41 24 24 0 0 0 9.01 1.87"/><path d="M245.76 200.56c-1.09-.14-5.63-7.24-7.62-7.95s-11.84-.58-14.2.64c-2.07 1.07-6.16 6.36-7.95 7.42-.1.06-.06.24 0 .24h3.46s3.75-5.22 5.56-5.8 10.09-1.43 12.08-.78 5.28 4 5.77 4.62a6.4 6.4 0 0 1 .78 1.5Z"/><ellipse class="cls-5" cx="231.48" cy="197.89" rx="4.55" ry="3.53"/><ellipse class="cls-9" cx="233.67" cy="196.35" rx="1.48" ry=".96"/><circle class="cls-9" cx="231.72" cy="197.82" r=".51"/></g><path d="M299.74 187.18a20 20 0 0 0-14-4.85c-4.69.1-14.08 3.43-17 4.51a1.39 1.39 0 0 1-1.52-.36c-1-1.06-2.81-3-2.11-4.21.93-1.56 9.07-4.35 13.18-4.67a28.7 28.7 0 0 1 13.55 1.68c4.85 2 8 6.42 8.1 7s-.05 1.04-.2.9m-85.63 0a20 20 0 0 1 14-4.85c4.68.1 14.08 3.43 17 4.51a1.4 1.4 0 0 0 1.52-.36c1-1.06 2.8-3 2.11-4.21-.94-1.56-9.08-4.35-13.18-4.67a28.7 28.7 0 0 0-13.56 1.68c-4.85 2-8 6.42-8.11 7s.11 1.04.22.9"/><path class="cls-5" d="M201.94 209.77c.16 2.76-1.38-24.35.64-26.87s16.13-13.72 19.66-24.31 27.95-14.66 35-14.62 24.74-2.27 31 9.58 9.94 16.84 16.13 22.69 6.16 35.3 6.16 35.3 4.86-6.42 5.84-7.2.63-10.31 2.31-17.14c1.62-6.57 4.66-25.77 3.4-29.8s-4.6-12.94-2.33-11.74l2.27 1.19s1.77-8.86-3-12.5-5.8-7.67-6.56-11.45-9.83-8.32-13.36-7.06-6.81-7.06-15.63-7.56-10.59.5-14.37-3-14.12-1.51-18.91 0a30.7 30.7 0 0 0-8.62 4.54s2.07-4.93 6.36-6.5a29.3 29.3 0 0 0-15.82 7.76s.19-3.53 2.45-5a24.8 24.8 0 0 0-14.87 5.55c-7.31 5.79-8.32 10.45-13.11 12.91S195.27 139 193 145.33s-3.53 14.88-2 18.91 2.21 39.54 3.47 40.55 7.39 3.71 7.47 4.98"/><path class="cls-8" d="M244 222.26a3.2 3.2 0 0 1 1.43-.64 7.6 7.6 0 0 1 1.58-.12 9.9 9.9 0 0 1 3.11.64 9 9 0 0 1 1.45.72c.23.14.45.31.67.46a6 6 0 0 0 .59.38 7.6 7.6 0 0 0 2.72.9 8.8 8.8 0 0 0 2.9 0 6.7 6.7 0 0 0 1.4-.35c.22-.09.45-.17.66-.28l.32-.17.35-.19a8.5 8.5 0 0 1 3-1 9 9 0 0 1 1.58 0 4.1 4.1 0 0 1 1.51.39 4.3 4.3 0 0 0-1.52-.09 9.2 9.2 0 0 0-4.2 1.4l-.31.2-.35.22a7 7 0 0 1-.74.37 8.7 8.7 0 0 1-1.56.47 9.5 9.5 0 0 1-3.23.07 8.4 8.4 0 0 1-3.08-1.09 8 8 0 0 1-.67-.48c-.21-.16-.38-.31-.59-.44a9 9 0 0 0-1.26-.73 10.3 10.3 0 0 0-2.76-.9 8 8 0 0 0-1.49-.1 3.3 3.3 0 0 0-1.51.36"/><path class="cls-5" d="M262.17 256.66a41.3 41.3 0 0 1-17.53 0c-.77.31-1.28.64-.9 1.34s4.27 5.34 6.95 5.43l2.68.1 2.67-.1c2.68-.09 6.57-4.74 6.95-5.43s.01-1-.82-1.34"/><path class="cls-4" d="M201.94 209.77s-4.15-6.88-7.87-6.37-6.74 5.8-2 17.14 3.31 13.93 3.73 17.65 7.35 4.64 7.24 1.64 6.43-17.58 4.92-21.18-6.96-8.5-6.02-8.88m107.19.74s4.61-7.19 8.21-6.14 6.35 7.55 0 18.81-5.3 14.17-6.27 18-7.95 3.86-7.4.73-3.81-19.35-1.78-22.92 8.11-7.99 7.24-8.48"/><path class="cls-8" d="M310.31 217.41c.49-1 1-2 1.55-3a31 31 0 0 1 1.79-2.89 8.25 8.25 0 0 1 2.42-2.47 1.8 1.8 0 0 1 .92-.22 4.3 4.3 0 0 1 .83.26l1.51.57-1.58-.33a3.3 3.3 0 0 0-.77-.12 1.3 1.3 0 0 0-.65.27 7.9 7.9 0 0 0-1.83 2.52 38.3 38.3 0 0 0-2.31 6.09 1 1 0 0 1-1.92-.58 1 1 0 0 1 .04-.1m-110.92-.35a38.5 38.5 0 0 0-2.31-6.09 7.8 7.8 0 0 0-1.83-2.56 1.3 1.3 0 0 0-.65-.28 4 4 0 0 0-.78.13l-1.57.33c.41-.17 1-.39 1.5-.57a3.8 3.8 0 0 1 .84-.26 1.56 1.56 0 0 1 .91.22 8.2 8.2 0 0 1 2.43 2.47 32 32 0 0 1 1.79 2.88c.55 1 1.06 2 1.55 3a1 1 0 0 1-.49 1.34 1 1 0 0 1-1.33-.49 1 1 0 0 1 0-.13Z"/><path class="cls-5" d="M255.55 231.21c-3.19.09-9.16-2-11.47-1.35s-7.52 2.53-8.85 3.5-4.67 1.29-4.67.62-1.93 0-4.83 3.64c-3.09 3.85-.86 5.59-.25 6.15s1.93.93 5.08-1.76c0 0 4.12-5.26 9.95-6s19.89-.23 25 .56 10.92 6.26 10.92 6.26c3.15 2.69 4.55 3 5.16 2.47s4.59-1.63 1.2-5.21-6-5.45-5.93-4.47c.06.75-1.95.69-3.16-.28s-4.37-4.32-6.67-4.93-8.28.93-11.46.84"/><path d="M412.74 335.34c-44.65 37.85-99.71 61-160.09 61.56a256.8 256.8 0 0 1-162-55.66l42.88-31.31c25.6-9.32 67-15.26 67-15.26l12.15-8.95s-1.38 7.82.32 12.92 14 14.56 14 14.56l-2.08 13.24.37 1.7 1.71-.76 6.43-12.85a171 171 0 0 0 29.3 2.07c16.84-.18 26.48-13.23 28-18.33s-.54-11.51-.54-11.51l13.37 7.91s33 8.19 58 15.56Z" style="fill:#184e77"/></svg>