<svg width="447" height="294" viewBox="0 0 447 294" fill="none" xmlns="http://www.w3.org/2000/svg">
<path d="M223.93 0.320312C219.64 1.89045 217.57 6.82031 217.57 6.82031C220.183 4.85796 223.093 3.32512 226.189 2.28027C230.979 0.770282 241.319 -1.21964 245.1 2.28027C248.88 5.78024 250.65 4.7803 259.47 5.28027C268.289 5.78026 271.57 14.0993 275.1 12.8398C278.63 11.5798 287.7 16.1204 288.46 19.9004C289.22 23.6802 290.25 27.7098 295.019 31.3496C299.773 34.977 298.032 43.7885 298.019 43.8496L295.75 42.6602C293.48 41.4603 296.82 50.3704 298.08 54.4004C298.276 55.0283 298.368 56.0243 298.377 57.2832C331.001 45.1554 356.393 27.5087 388.74 40.6602C448.36 64.9001 454.49 126.72 440.27 156.18C423.27 191.3 411.59 213.07 388.74 232.34C344 270.08 289 293.379 228.65 293.899C169.872 294.434 112.689 274.787 66.6503 238.24C41.4105 218.11 26.6502 192.5 10.6503 163.24C-3.92964 136.59 -4.54955 75.4001 23.7304 53.8301C49.6736 34.0424 84.4023 15.3835 168.094 45.1611C168.372 44.1852 168.675 43.2349 169 42.3301C171.27 36.0001 177.79 24.0001 182.58 21.54C187.37 19.0801 188.38 14.4197 195.689 8.62988C199.904 5.20096 205.129 3.25125 210.56 3.08008C208.3 4.5502 208.11 8.08008 208.11 8.08008C212.462 3.93164 217.985 1.22252 223.93 0.320312Z" fill="#070507"/>
</svg>
